{
    "asset" : {
        "generator" : "Khronos glTF Blender I/O v1.2.75",
        "version" : "2.0"
    },
    "scene" : 0,
    "scenes" : [
        {
            "name" : "Scene",
            "nodes" : [
                0
            ]
        }
    ],
    "nodes" : [
        {
            "mesh" : 0,
            "name" : "TARELKA",
            "rotation" : [
                -0.7071067690849304,
                0,
                0,
                0.7071067690849304
            ],
            "scale" : [
                1.4999999621068127e-05,
                1.4999999621068127e-05,
                1.4999999621068127e-05
            ]
        }
    ],
    "materials" : [
        {
            "doubleSided" : true,
            "emissiveFactor" : [
                0,
                0,
                0
            ],
            "name" : "Material.001",
            "pbrMetallicRoughness" : {
                "baseColorFactor" : [
                    0.12734781205654144,
                    0.02517332322895527,
                    0.16264459490776062,
                    1
                ],
                "metallicFactor" : 0,
                "roughnessFactor" : 0.5
            }
        }
    ],
    "meshes" : [
        {
            "name" : "Mesh",
            "primitives" : [
                {
                    "attributes" : {
                        "POSITION" : 0,
                        "NORMAL" : 1,
                        "TEXCOORD_0" : 2
                    },
                    "indices" : 3,
                    "material" : 0
                }
            ]
        }
    ],
    "accessors" : [
        {
            "bufferView" : 0,
            "componentType" : 5126,
            "count" : 401,
            "max" : [
                11096.541015625,
                11072.107421875,
                -18.189403533935547
            ],
            "min" : [
                -11096.541015625,
                -11104.6904296875,
                -1717.171142578125
            ],
            "type" : "VEC3"
        },
        {
            "bufferView" : 1,
            "componentType" : 5126,
            "count" : 401,
            "type" : "VEC3"
        },
        {
            "bufferView" : 2,
            "componentType" : 5126,
            "count" : 401,
            "type" : "VEC2"
        },
        {
            "bufferView" : 3,
            "componentType" : 5123,
            "count" : 1260,
            "type" : "SCALAR"
        }
    ],
    "bufferViews" : [
        {
            "buffer" : 0,
            "byteLength" : 4812,
            "byteOffset" : 0
        },
        {
            "buffer" : 0,
            "byteLength" : 4812,
            "byteOffset" : 4812
        },
        {
            "buffer" : 0,
            "byteLength" : 3208,
            "byteOffset" : 9624
        },
        {
            "buffer" : 0,
            "byteLength" : 2520,
            "byteOffset" : 12832
        }
    ],
    "buffers" : [
        {
            "byteLength" : 15352,
            "uri" : "disc.bin"
        }
    ]
}
